<svg width="30" height="30" viewBox="0 0 30 30" fill="none" xmlns="http://www.w3.org/2000/svg">
<path fill-rule="evenodd" clip-rule="evenodd" d="M14.7104 0.0715548C14.4311 0.22631 14.4152 0.326607 14.4129 1.94174C14.4108 3.54621 14.4362 3.71527 14.7008 3.85684C14.8456 3.93433 15.1486 3.93433 15.2934 3.85684C15.5571 3.71574 15.5833 3.54428 15.5833 1.95915C15.5833 0.924934 15.5617 0.416822 15.5132 0.310487C15.3849 0.0287627 14.9963 -0.0868931 14.7104 0.0715548ZM7.48725 2.01209C7.30852 2.10922 7.17539 2.39077 7.21361 2.59072C7.22833 2.66763 7.57805 3.31631 7.99079 4.03217C8.61655 5.11756 8.77336 5.34911 8.93503 5.42625C9.30843 5.60428 9.7479 5.3171 9.74222 4.89874C9.73858 4.62745 8.28811 2.12165 8.06828 2.00681C7.87003 1.90329 7.68433 1.90499 7.48725 2.01209ZM21.9172 2.00781C21.8266 2.05793 21.4929 2.57108 21.013 3.39791C20.3922 4.46759 20.2529 4.74955 20.2552 4.93139C20.2605 5.35157 20.7036 5.6136 21.0799 5.41904C21.2161 5.34864 21.4279 5.03045 22.0051 4.02918C22.4169 3.31496 22.7658 2.66763 22.7806 2.59072C22.8675 2.13607 22.3349 1.7765 21.9172 2.00781ZM13.9419 5.71255C10.3246 6.16755 7.27821 8.64275 6.14762 12.0454C5.78213 13.1453 5.71384 13.61 5.71384 14.9963C5.71384 16.0754 5.73219 16.3395 5.84157 16.8334C6.38022 19.2669 7.69388 21.2586 9.68635 22.6627C10.6498 23.3417 12.0014 23.9103 13.2971 24.1818C14.0639 24.3425 16.0504 24.3269 16.8295 24.1542C20.6475 23.3075 23.4357 20.4691 24.1844 16.6669C24.3423 15.8643 24.3245 13.9448 24.1518 13.1591C23.3224 9.38763 20.5017 6.58885 16.7545 5.81953C16.3254 5.73142 14.3799 5.65745 13.9419 5.71255ZM16.2592 6.93452C17.9081 7.20195 19.4028 7.94477 20.6053 9.09441C21.3492 9.80558 21.8406 10.4731 22.2958 11.3912C22.8891 12.5872 23.1445 13.6724 23.1445 14.9963C23.1445 16.3201 22.8891 17.4053 22.2958 18.6013C21.8406 19.5194 21.3492 20.1869 20.6053 20.8981C17.4606 23.9045 12.5354 23.9014 9.382 20.8908C8.64545 20.1876 8.15275 19.5177 7.69834 18.6013C7.10089 17.3967 6.84947 16.3289 6.84947 14.9963C6.84947 13.6637 7.10089 12.5958 7.69834 11.3912C8.15275 10.4748 8.64545 9.80488 9.382 9.10168C10.5741 7.96359 12.0801 7.20839 13.7028 6.93505C14.3186 6.8313 15.6212 6.83106 16.2592 6.93452ZM2.22453 7.28173C1.94802 7.43496 1.85441 7.77407 2.00764 8.06746C2.12247 8.28728 4.62827 9.73776 4.89956 9.74139C5.15479 9.74485 5.40087 9.55117 5.46565 9.29589C5.5646 8.90613 5.43892 8.79287 3.97783 7.95532C3.22029 7.52107 2.59723 7.20077 2.51235 7.20195C2.4311 7.20312 2.30161 7.23899 2.22453 7.28173ZM26.0003 7.96781C24.9663 8.56297 24.6456 8.77558 24.5746 8.91287C24.3797 9.28979 24.6415 9.73307 25.062 9.73805C25.2434 9.74016 25.5282 9.59989 26.5949 8.98321C27.9114 8.22192 28.0692 8.09448 28.0692 7.79177C28.0692 7.48092 27.7848 7.19989 27.4702 7.19989C27.3955 7.19989 26.734 7.54546 26.0003 7.96781ZM0.290091 14.4904C0.0122943 14.6473 -0.0796207 14.9836 0.074079 15.2809C0.219572 15.5622 0.34619 15.5825 1.95998 15.5825C3.5451 15.5825 3.71656 15.5562 3.85766 15.2926C3.96493 15.0922 3.92824 14.7802 3.77665 14.6039L3.63526 14.4394L2.03273 14.4254C0.775517 14.4143 0.400002 14.4284 0.290091 14.4904ZM26.3902 14.4682C26.1185 14.5778 25.9854 15.0103 26.1365 15.2926C26.2777 15.5564 26.4487 15.5825 28.0399 15.5825C29.6696 15.5825 29.7973 15.5608 29.9336 15.2617C30.0221 15.0673 30.0221 14.9252 29.9336 14.7308C29.7968 14.4306 29.6716 14.4098 28.0281 14.4138C27.1963 14.4158 26.4593 14.4403 26.3902 14.4682ZM4.65078 20.3045C4.55406 20.3551 3.93838 20.7048 3.28266 21.0816C2.08595 21.7693 1.92498 21.902 1.92498 22.2007C1.92498 22.5117 2.2094 22.7926 2.52407 22.7926C2.59887 22.7926 3.25306 22.4527 3.97783 22.0372C5.41013 21.2162 5.54736 21.0955 5.47678 20.7196C5.4058 20.3411 4.98509 20.1297 4.65078 20.3045ZM24.9331 20.2542C24.7449 20.3015 24.5567 20.5102 24.5184 20.7139C24.4473 21.0927 24.5647 21.1975 25.9642 22.0043C26.6784 22.4161 27.3257 22.765 27.4026 22.7797C27.7185 22.8401 28.0692 22.5385 28.0692 22.2064C28.0692 21.939 27.9022 21.7655 27.3273 21.4359C27.0099 21.2539 26.427 20.918 26.0318 20.6895C25.2982 20.2653 25.1393 20.2024 24.9331 20.2542ZM8.89218 24.5786C8.78737 24.6375 8.49462 25.0864 7.98874 25.9638C7.57711 26.6778 7.22833 27.3249 7.21361 27.4018C7.15324 27.7176 7.45489 28.0684 7.78691 28.0684C8.09197 28.0684 8.22116 27.9123 8.91451 26.7068C9.83648 25.1036 9.80242 25.1779 9.72357 24.939C9.6877 24.8302 9.60979 24.6973 9.55053 24.6437C9.39847 24.5061 9.07771 24.4744 8.89218 24.5786ZM20.5952 24.548C20.3885 24.6326 20.258 24.8301 20.2553 25.0623C20.2532 25.2422 20.3955 25.5307 21.0102 26.5935C21.7741 27.9142 21.8992 28.0684 22.2073 28.0684C22.5393 28.0684 22.8409 27.7176 22.7806 27.4018C22.7658 27.3249 22.4169 26.6776 22.0051 25.9633C21.1596 24.4968 21.0324 24.3691 20.5952 24.548ZM14.6047 26.2167L14.4402 26.3581L14.4227 27.9271C14.4038 29.6337 14.4234 29.7697 14.7093 29.9176C14.9094 30.0211 15.0596 30.0252 15.2625 29.9327C15.5616 29.7965 15.5833 29.6688 15.5833 28.0391C15.5833 26.4478 15.5572 26.2768 15.2934 26.1357C15.093 26.0284 14.781 26.0651 14.6047 26.2167Z" fill="#1B6AA5"/>
</svg>
