<svg width="30" height="30" viewBox="0 0 30 30" fill="none" xmlns="http://www.w3.org/2000/svg">
<path fill-rule="evenodd" clip-rule="evenodd" d="M18.9203 1.52856C18.3586 1.59943 17.6205 1.8013 17.1011 2.02615C16.0996 2.45967 14.9964 3.36094 14.4208 4.21591C14.2297 4.49955 14.1483 4.57675 14.0737 4.54492C13.7888 4.42335 13.1571 4.27622 12.7306 4.23215C10.6936 4.02166 8.73534 5.08893 7.7574 6.94247C7.57645 7.28543 7.52768 7.33854 7.41995 7.3097C7.10389 7.22512 6.19934 7.20624 5.68211 7.27353C0.826926 7.9047 -1.60439 13.3098 1.16496 17.3158C1.52123 17.8312 2.28645 18.5882 2.80274 18.9359C3.34218 19.2993 4.18513 19.6827 4.84526 19.8649L5.41834 20.0231H15.4416H25.4649L25.9924 19.8593C27.8158 19.2931 29.1412 18.0338 29.7068 16.3303C30.1628 14.9572 30.0859 13.5646 29.4831 12.2784C29.167 11.6039 28.8252 11.1395 28.2345 10.5824C27.5777 9.96293 27.1012 9.69008 26.0049 9.30591C25.9139 9.27396 25.9062 9.22883 25.9463 8.96043C25.9717 8.79062 25.9912 8.25605 25.9897 7.77247C25.9874 7.07477 25.9608 6.78896 25.8607 6.38814C25.2578 3.97476 23.335 2.12064 20.9222 1.62621C20.3606 1.51115 19.4214 1.46531 18.9203 1.52856ZM20.2203 2.70351C22.5769 2.98774 24.4197 4.74521 24.794 7.06545C24.8903 7.66256 24.835 8.70469 24.6781 9.25175C24.5207 9.8001 24.5242 9.87431 24.7175 10.0898C24.8518 10.2394 24.9669 10.2884 25.4063 10.3823C26.8185 10.6845 28.0076 11.6886 28.5277 13.0186C28.7529 13.5944 28.7992 13.857 28.8015 14.5719C28.804 15.3755 28.7145 15.7886 28.3927 16.4575C27.8907 17.5012 26.9677 18.2977 25.797 18.6974L25.3476 18.8508H15.4709C5.99694 18.8508 5.57766 18.8464 5.1888 18.7409C3.20209 18.2022 1.79819 16.7772 1.304 14.7977C1.15447 14.1986 1.17024 12.9625 1.33536 12.3445C1.50628 11.7047 1.92187 10.8838 2.34314 10.3536C2.99916 9.52806 4.05934 8.84378 5.12527 8.55792C5.7538 8.38934 6.92019 8.3724 7.56344 8.52251C8.18342 8.66712 8.39707 8.56858 8.55398 8.06555C8.83047 7.17922 9.66827 6.19665 10.4886 5.7966C11.0852 5.50563 11.584 5.38781 12.2175 5.38822C12.8508 5.38857 13.4127 5.5102 13.8866 5.74941C14.4618 6.03973 14.7703 5.97057 15.011 5.49725C15.4891 4.55693 16.354 3.70126 17.3173 3.2154C17.9078 2.91757 18.8183 2.69009 19.5755 2.65122C19.657 2.647 19.9472 2.67057 20.2203 2.70351ZM8.91142 22.0893C8.74554 22.2257 8.08535 23.8146 8.08535 24.0774C8.08535 24.3623 8.34965 24.6244 8.63675 24.6244C8.97971 24.6244 9.14881 24.408 9.51774 23.497C9.6971 23.0543 9.84382 22.6104 9.84382 22.5107C9.84382 22.2382 9.5678 21.9867 9.26868 21.9867C9.13387 21.9867 8.98375 22.0298 8.91142 22.0893ZM13.5527 22.0906C13.4751 22.151 13.2772 22.5452 13.0632 23.0666C12.7736 23.7716 12.7104 23.982 12.7373 24.151C12.8012 24.5524 13.2081 24.7367 13.5919 24.5382C13.7165 24.4738 13.8064 24.3366 13.9471 23.996C14.0507 23.7452 14.2117 23.3592 14.3049 23.1383C14.5263 22.6136 14.5259 22.3808 14.3031 22.1581C14.1017 21.9567 13.7643 21.9264 13.5527 22.0906ZM18.1579 22.1479C18.0049 22.3141 17.3466 23.8514 17.3466 24.0426C17.3466 24.3354 17.6349 24.6244 17.9271 24.6244C18.1413 24.6244 18.3512 24.4867 18.4581 24.2759C18.6289 23.9392 19.0931 22.7799 19.1064 22.6568C19.1335 22.406 19.098 22.2888 18.9506 22.1413C18.7301 21.9208 18.3643 21.9239 18.1579 22.1479ZM22.8294 22.1186C22.6095 22.3109 21.9569 23.9295 22.0071 24.158C22.059 24.3943 22.3486 24.6244 22.5939 24.6244C22.9153 24.6244 23.0536 24.4389 23.4452 23.4826C23.7813 22.6621 23.8005 22.5902 23.7392 22.3857C23.7032 22.2653 23.6158 22.1263 23.5451 22.0768C23.353 21.9422 23.0081 21.9624 22.8294 22.1186ZM7.14023 26.5269C7.05565 26.5745 6.93373 26.7264 6.86925 26.8645C6.66603 27.2999 6.20965 28.4716 6.20989 28.5574C6.21036 28.7345 6.44013 29.0102 6.64306 29.0772C6.8073 29.1314 6.88426 29.1296 7.0087 29.0686C7.24451 28.953 7.34926 28.7763 7.70781 27.8894C8.0622 27.0127 8.07685 26.8572 7.82697 26.6224C7.65289 26.4589 7.33888 26.4152 7.14023 26.5269ZM11.7272 26.5963C11.5106 26.7933 10.89 28.23 10.8882 28.5384C10.8868 28.7992 11.0291 28.9965 11.2782 29.0786C11.4537 29.1366 11.5193 29.1306 11.7031 29.04C11.9051 28.9403 11.9462 28.8707 12.286 28.0535C12.4871 27.5699 12.653 27.1021 12.6546 27.014C12.6585 26.7869 12.3862 26.5042 12.1232 26.4625C11.9461 26.4343 11.8814 26.4562 11.7272 26.5963ZM16.4967 26.4948C16.2875 26.5843 16.188 26.7508 15.8561 27.5665C15.4872 28.473 15.4576 28.6982 15.6782 28.9189C15.8873 29.1279 16.0838 29.1632 16.3406 29.0377C16.5381 28.9411 16.5828 28.8669 16.8983 28.1121C17.3322 27.0742 17.3561 26.9288 17.1334 26.6841C16.9562 26.4895 16.6923 26.411 16.4967 26.4948ZM21.1273 26.4969C21.0628 26.5234 20.9674 26.5942 20.9152 26.6544C20.7757 26.8154 20.1602 28.3654 20.1602 28.5556C20.1602 28.7542 20.3998 29.0531 20.5991 29.1031C20.8087 29.1557 21.1338 29.0004 21.2387 28.7975C21.4734 28.3435 21.9185 27.1682 21.9173 27.0054C21.9145 26.6156 21.4959 26.3461 21.1273 26.4969Z" fill="#1B6AA5"/>
</svg>
